<?xml version="1.0" encoding="utf-8"?>
<!-- Generator: Adobe Illustrator 24.0.2, SVG Export Plug-In . SVG Version: 6.00 Build 0)  -->
<svg version="1.1" id="Layer_1" xmlns="http://www.w3.org/2000/svg" xmlns:xlink="http://www.w3.org/1999/xlink" x="0px" y="0px"
	 viewBox="0 0 1366 448" style="enable-background:new 0 0 1366 448;" xml:space="preserve">
<style type="text/css">
	.st0{fill:#51D1CD;}
	.st1{fill:#FFECDA;}
	.st2{fill:#FFE0CA;}
	.st3{fill:#FBCBAA;}
	.st4{opacity:0.5;fill:#FBCBAA;}
	.st5{fill:#FFC29C;}
	.st6{fill:#6ECECF;}
	.st7{fill:#0C3563;}
	.st8{fill:#D04339;}
	.st9{fill:#AA2D27;}
	.st10{fill:#FFB27B;}
	.st11{fill:#92DDDA;}
	.st12{fill:#FF985B;}
	.st13{fill:#1F3765;}
	.st14{fill:#21B7C0;}
	.st15{opacity:0.8;fill:#FFA347;}
	.st16{fill:#FF9339;}
	.st17{opacity:0.5;fill:#FF842A;}
	.st18{fill:#FF842A;}
	.st19{fill:#FFA347;}
	.st20{opacity:0.5;fill:#FFE2CB;}
	.st21{fill:#0D458D;}
	.st22{fill:#E77423;}
	.st23{fill:#449FF2;}
	.st24{opacity:0.4;fill:#E5F2FD;}
	.st25{fill:#263252;}
</style>
<g>
	<path class="st0" d="M1327.23,441.64c-2.6,0.06-5.17-0.21-7.63-0.61c2.9-2.14,9.01-6.56,13.98-9.67
		c6.78-4.23,10.62-11.36,1.06-12.57c-8.15-1.04-14.55,16.74-16.27,22.03c-1.12-0.21-2.21-0.43-3.26-0.66
		c1.31-3.76,4.18-11.73,6.9-17.28c3.67-7.5,16.66-20.17,3.67-21.61c-11.55-1.29-14.62,30.76-15.15,37.89
		c-2.32-0.49-4.35-0.83-5.95-0.7c-3.69,0.27-7.23,4.3-5.14,6.07h39C1337.17,443.45,1333.91,441.48,1327.23,441.64z"/>
	<path class="st0" d="M79.61,436.19L79.61,436.19c-5.91-14.26-18.65-41.57-28.33-38.34c-9.57,3.19,11.95,26.84,24.07,39.19
		c-2.41,0.51-4.58,1-6.59,1.46c-9.34-8.5-24.76-22.44-26.17-16.71c-1.23,5.03,12,12.62,22.12,17.62c-6.3,1.37-11.07,2.03-16.99,0.68
		c-9.75-2.22-14.72,4.4-14.72,4.4h74.39C107.38,444.5,95.13,433.26,79.61,436.19z"/>
	<g>
		<g>
			<g>
				<path class="st1" d="M575.12,87.35V272c0,11.33-9.27,20.6-20.6,20.6H444.77c-2.94,0-5.73-0.62-8.27-1.75
					c-7.24-3.2-12.33-10.46-12.33-18.86V87.35c0-11.34,9.27-20.6,20.6-20.6h109.75C565.86,66.75,575.12,76.02,575.12,87.35z"/>
				<path class="st2" d="M526.51,136.19c-11.6-4.36-17.47-17.29-13.11-28.88c4.35-11.59,17.28-17.47,28.88-13.11
					c11.59,4.35,17.47,17.29,13.11,28.88C551.03,134.67,538.1,140.54,526.51,136.19z"/>
				<path class="st3" d="M555.39,123.07l-41.99-15.77c4.35-11.59,17.28-17.47,28.88-13.11C553.87,98.55,559.74,111.48,555.39,123.07
					z"/>
				<path class="st2" d="M450.72,132.56c-9.6-7.84-11.02-21.96-3.19-31.56c7.83-9.59,21.96-11.03,31.56-3.19
					c9.59,7.83,11.02,21.96,3.19,31.56C474.44,138.97,460.31,140.4,450.72,132.56z"/>
				<path class="st3" d="M482.27,129.37l-34.75-28.37c7.83-9.59,21.96-11.03,31.56-3.19C488.68,105.65,490.1,119.78,482.27,129.37z"
					/>
			</g>
		</g>
		<path class="st4" d="M575.12,100.5V272c0,11.33-9.27,20.6-20.6,20.6H444.77c-2.94,0-5.73-0.62-8.27-1.75V124.24
			c0-6.81,2.91-12.98,7.55-17.32c1.71-1.6,3.67-2.96,5.8-4.01c3.14-1.54,6.67-2.41,10.39-2.41H575.12z"/>
	</g>
	<g>
		<g>
			<path class="st1" d="M582.22,113.66H472.47c-11.33,0-20.6,9.27-20.6,20.6v184.65c0,11.33,9.27,20.6,20.6,20.6h109.75
				c11.33,0,20.6-9.27,20.6-20.6V134.27C602.82,122.93,593.55,113.66,582.22,113.66z"/>
			<path class="st2" d="M554.2,183.1c-11.6-4.36-17.47-17.29-13.11-28.88c4.35-11.59,17.28-17.47,28.88-13.11
				c11.59,4.35,17.47,17.29,13.11,28.88C578.73,181.58,565.8,187.45,554.2,183.1z"/>
			<path class="st3" d="M583.08,169.99l-41.99-15.77c4.35-11.59,17.28-17.47,28.88-13.11C581.57,145.46,587.44,158.39,583.08,169.99
				z"/>
			<path class="st2" d="M478.41,179.48c-9.6-7.84-11.02-21.96-3.19-31.56c7.83-9.59,21.96-11.03,31.56-3.19
				c9.59,7.83,11.02,21.96,3.19,31.56C502.14,185.88,488.01,187.31,478.41,179.48z"/>
			<path class="st3" d="M509.97,176.29l-34.75-28.37c7.83-9.59,21.96-11.03,31.56-3.19C516.37,152.56,517.8,166.69,509.97,176.29z"
				/>
		</g>
	</g>
	<g>
		<g>
			<path class="st5" d="M984.31,135.81c0,0-0.09-0.85-1.06-1.99c-0.6-1.22-1.24-2.69-1.27-3.52c-0.05-1.58-1.82-2.2-2.55-0.88
				c-0.24,0.44-0.36,0.94-0.38,1.47c-2.83-1.29-7.18-2.45-13.88-2.9c0,0-5.16-0.57-1.82,3.8c2.24,2.92,4.17,2.94,7.39,7.01
				c3.22,4.07,8.05,6.32,11.73,5.24l4.3,0.51l2.79-6.85L984.31,135.81z"/>
			<path class="st6" d="M1122.74,90.45c0,0-4.23,46.58-64.5,66.25c-16.27,5.31-77.13-11-77.13-11s0.35-8.01,5.29-10.03
				c0,0,57.01-3.5,61.81-1.15c4.26,2.09,40.66-35.39,52.43-41.43C1112.4,87.06,1122.74,90.45,1122.74,90.45z"/>
		</g>
		<path class="st7" d="M1197.12,411c0,0,7.21,6.58,5.81,11.26c-1.41,4.68-7.92,7.8-8.8,13.51c-0.88,5.72-4.4,8.84-7.57,8.84
			c-3.17,0-15.1,0-15.1,0s-2.33-4.02,3.3-5.24c5.63-1.21,7.75-7.93,7.4-14.17c-0.35-6.24,0.53-14.55,0.53-14.55l11.96-2.77
			L1197.12,411z"/>
		<path class="st8" d="M1197.12,406.87c-1.32,3.9-15.84,9.62-15.84,9.62s-7.91-12.47-33.25-57.17c-2.18-3.85-4.46-8.08-6.81-12.58
			c-24.88-47.8-57.06-127.23-57.06-127.23l61.5-17.15c0,0,2.9,24.68,3.43,37.16c0.32,7.62,4.66,23.91,10.17,38.14
			c3.5,9.05,7.49,17.27,11.21,21.89C1187.43,320.58,1197.12,406.87,1197.12,406.87z"/>
		<path class="st9" d="M1159.25,277.65c-3.87,19.6-10.96,52.43-18.03,69.08c-24.88-47.8-57.06-127.23-57.06-127.23l61.5-17.15
			c0,0,2.9,24.68,3.43,37.16C1149.41,247.14,1153.75,263.42,1159.25,277.65z"/>
		<path class="st7" d="M1108.62,428.02c0,0,1.29,14.98-1.87,16.54l-40.53-0.08c0,0,0-4.68,6.51-5.72
			c6.51-1.04,17.95-4.85,19.88-13.34C1094.55,416.94,1108.62,428.02,1108.62,428.02z"/>
		<path class="st8" d="M1074.4,216.38c0,0,2.14,26.26,4.65,57.83c3.41,42.88,7.52,95.56,7.93,105.54
			c0.7,17.33,3.52,45.05,3.52,45.05s6.68,6.58,20.06,3.81c0,0,11.92-39.57,15.32-81.43c0.05-0.69,0.11-1.38,0.16-2.07
			c3.17-42.62,8.09-132.36,8.09-132.36L1074.4,216.38z"/>
		<path class="st10" d="M1130.45,72.93c0,0-24.05,15.82-39.08,11.15c0,0,4.18-6.33,8.16-11.38c-0.52-3.02-0.93-5.64-1.16-7.86
			c-0.64-5.12-0.64-8.03-0.64-8.03l10.06-7.91l9.54-7.57C1116.57,62.62,1130.45,72.93,1130.45,72.93z"/>
		<path class="st11" d="M1164.39,266.08c-30.57,20.64-92.34,14.75-92.81,14.35c-1.03-13.14-1.61-34.8-1.93-54.85
			c-0.4-24.91-0.4-47.32-0.37-47.79c0,0,0.02-0.75,0.05-2.03c0.1-4.05,0.35-13.33,0.61-20.24c0.05-1.29,0.1-2.5,0.15-3.57
			c0.01-0.06,0.01-0.12,0.01-0.18c0.19-3.1,2.09-11.4,4.76-21.07c3.92-14.18,9.48-31.28,13.76-39.24c2.19-4.08,9.57-15.9,9.57-15.9
			c5.21,1.03,8.96-0.51,14.45-3.19c6.01-2.9,12.49-6.03,13.53-5.24c7.86,5.75,13.18,18.67,16.01,35.18
			C1143.8,111.82,1165.9,265.06,1164.39,266.08z"/>
		<path class="st12" d="M1117.5,49.48c0,0-6.59,12.01-19.13,15.37c-0.64-5.12-0.64-8.03-0.64-8.03l10.06-7.91L1117.5,49.48z"/>
		<path class="st10" d="M1093.14,56.47c0,0,24.87,4.07,27.21-11.22c2.33-15.29,7.12-25.06-8.66-28.31
			c-15.78-3.24-19.76,2.13-21.8,7.05C1087.84,28.91,1086.73,55.02,1093.14,56.47z"/>
		<path class="st13" d="M1129.38,15.11c0.23-0.26,0.75-0.47,1.91-0.53c0,0-0.93-0.58-2.16-0.61c-0.24-1.61-1.1-4.46-3.87-5.16
			c0,0,1.49,0.79,1.69,2.51c-3.21-3.3-10.1-5.7-29.16-4.2c-25.12,1.98-16.84,18.07-13.59,19.98c3.25,1.92,11.44-3.34,17.5-2.86
			s7.21,9.24,9.27,10.44c2.06,1.2,1.25-0.92,4.03-2.18c2.78-1.26,3.05,3.35,2.24,6.35c-0.8,3,3.02,6.95,3.02,6.95s0,0,3.86-4.16
			c3.86-4.16,7.5-21.77,5.75-25.53C1129.7,15.79,1129.54,15.45,1129.38,15.11z"/>
		<path class="st6" d="M1069.65,225.58c-0.4-24.91-0.4-47.32-0.37-47.79c0,0,0.02-0.75,0.05-2.03
			c23.97-29.66,54.85-60.47,54.85-60.47S1130.87,202.31,1069.65,225.58z"/>
		<path class="st6" d="M1102.17,110.23c-0.33,0.53-7.92,45.35-27.4,45.84c-1.9,0.05-3.49-0.15-4.83-0.55
			c0.05-1.29,0.1-2.5,0.15-3.57c0.01-0.06,0.01-0.12,0.01-0.18c0.19-3.1,2.09-11.4,4.76-21.07
			C1082.82,129.07,1092.14,121.76,1102.17,110.23z"/>
		<path class="st14" d="M1126.23,67.14c0,0-2.31-6.72-4.19-7.47c0,0-26.18,6.04-34.91,34.97
			C1087.13,94.63,1097.32,76.88,1126.23,67.14z"/>
		<g>
			<g>
				<path class="st15" d="M1074.89,298.49l-58.82,8.18L984.95,311c-12.08,1.68-23.33-6.83-25.01-18.91L929.71,74.72
					c-1.68-12.08,6.82-23.33,18.9-25.01l27.59-3.84l62.35-8.67c12.08-1.68,23.33,6.82,25.01,18.91l30.24,217.37
					C1095.47,285.55,1086.97,296.81,1074.89,298.49z"/>
				<path class="st16" d="M1078.77,235.13l-3.16-11.22l0,0l-3.16-11.23c-0.8-2.86-2.71-5.14-5.13-6.5c-2.42-1.36-5.35-1.8-8.22-0.99
					c-0.32,0.09-0.62,0.2-0.93,0.31c0.85-1.7,1.22-3.53,1.14-5.32c2.65,4.48,8.26,6.54,13.26,4.58c5.54-2.17,8.3-8.48,6.13-14.02
					l-4.25-10.85l0,0l-4.25-10.86c-1.08-2.77-3.21-4.84-5.75-5.96c-2.54-1.11-5.5-1.26-8.28-0.17c-5.54,2.17-8.3,8.48-6.13,14.02
					l6.41,16.36c-0.74-0.8-1.6-1.49-2.59-2.06c-2.05-1.16-4.31-1.56-6.49-1.32c0.87-1.52,1.35-3.22,1.42-4.93
					c0.1-2.24-0.5-4.51-1.8-6.45c0.65-4.18-1.19-8.56-5.01-10.91l-19.85-12.23c-5.07-3.12-11.77-1.53-14.89,3.54
					c-2.89,4.69-1.74,10.77,2.46,14.12c-0.95,0.13-1.89,0.37-2.8,0.77l-10.72,4.6l0,0l-10.71,4.6c-3.73,1.6-6.1,5.08-6.49,8.87
					l-1.56-2.64l0,0l-5.94-10.03c-3.03-5.12-9.7-6.84-14.82-3.8c-5.13,3.03-6.84,9.7-3.8,14.82l5.94,10.03l0,0l3.8,6.43
					c-3.57,2.03-5.84,6.02-5.46,10.36l1.02,11.61l0,0l1.02,11.62c0.26,2.96,1.71,5.55,3.84,7.33c2.13,1.78,4.93,2.76,7.89,2.5
					c1.27-0.11,2.46-0.45,3.55-0.96c-0.8,2.38-0.75,5,0.16,7.36c-1.82,1.41-3.21,3.41-3.82,5.79l-2.92,11.29l0,0l-2.92,11.29
					c-0.75,2.88-0.24,5.81,1.16,8.2c1.41,2.39,3.72,4.25,6.6,4.99c4.5,1.16,9.09-0.72,11.6-4.33c0.93,1.55,2.25,2.9,3.93,3.85
					c5.18,2.93,11.82,1.09,14.75-4.09l5.74-10.15l0,0l5.74-10.15c0.78-1.38,1.21-2.86,1.34-4.35c2.48-0.1,4.93-1.02,6.89-2.82
					l1.66-1.52l-2.08,3.68l0,0l-5.74,10.15c-2.93,5.18-1.09,11.82,4.09,14.75c5.18,2.93,11.82,1.09,14.75-4.09l5.74-10.15l0,0
					l5.74-10.15c0.07-0.13,0.13-0.27,0.2-0.4c0.69,0.83,1.5,1.55,2.39,2.13l-2.04,3.61c-2.93,5.18-1.09,11.82,4.09,14.75
					c5.18,2.93,11.82,1.09,14.75-4.09l11.48-20.3c1.46-2.59,1.74-5.54,0.99-8.22c-0.74-2.67-2.49-5.07-5.09-6.53
					c-0.89-0.5-1.82-0.85-2.76-1.08c0.13-0.03,0.26-0.05,0.39-0.09C1077.02,246.86,1080.39,240.86,1078.77,235.13z M980.75,238.36
					l-0.35-3.96c0.84,1.05,1.87,1.96,3.11,2.66c0.46,0.26,0.94,0.47,1.42,0.66l-4.44,4.07C980.76,240.7,980.86,239.54,980.75,238.36
					z M1051.63,218.54l4.24,15.09c-1.17-1.72-2.79-3.04-4.63-3.85c-2.25-0.98-4.83-1.21-7.32-0.49c1-0.82,1.88-1.83,2.55-3.02
					l4.93-8.71C1051.46,217.88,1051.53,218.21,1051.63,218.54z M1021.45,180.38l3.01,1.86l-2.51,2.3
					C1022.06,183.16,1021.9,181.75,1021.45,180.38z M1028.52,214.04c-0.51-1.63-1.38-3.09-2.53-4.28c0.76-0.41,1.48-0.91,2.14-1.51
					l7.64-7L1028.52,214.04z M1038.33,233.12c-2.53-1.58-5.59-2.03-8.42-1.31l-0.17-2.92c0.6,0.55,1.26,1.05,1.99,1.46
					c2.63,1.49,5.62,1.74,8.33,0.96C1039.4,231.85,1038.83,232.46,1038.33,233.12z M1011.08,195.56c-1.86,3.87-1.31,8.67,1.76,12.02
					c0.06,0.06,0.12,0.11,0.18,0.17c-0.74,0.41-1.43,0.89-2.04,1.45c0.27-1.59,0.19-3.22-0.23-4.75c-0.74-2.67-2.49-5.07-5.09-6.53
					c-0.01-0.01-0.02-0.01-0.03-0.02L1011.08,195.56z M1004,222.83l3.38-5.98c-0.01,0.34-0.01,0.69,0.01,1.03l0.6,10.03
					c-1.74-1.18-3.77-1.81-5.81-1.86L1004,222.83L1004,222.83z M990.96,270.83l0.8-3.11c0.59-2.27,0.39-4.55-0.39-6.59
					c0.22-0.18,0.45-0.35,0.66-0.55l17.18-15.76c0.11-0.1,0.21-0.21,0.31-0.32c0.4,1.01,0.95,1.93,1.62,2.76l-3.06,2.81
					c-2.06,1.89-3.21,4.41-3.44,7c-3.62,0.15-7.09,2.1-9,5.46L990.96,270.83z M1039.56,250.58l0.94,2.4
					c-1.02-0.29-2.05-0.44-3.09-0.43L1039.56,250.58z M1062.55,249.93l-1.31-3.34l0,0l-0.25-0.63c1.36,1.26,3.02,2.16,4.83,2.61
					C1064.66,248.84,1063.56,249.29,1062.55,249.93z M989.92,203.76l-4.76,8.41l0,0l-5.74,10.15c-0.03,0.05-0.05,0.1-0.07,0.14
					l-0.65-7.32c-0.02-0.19-0.05-0.37-0.08-0.55c0.31-0.15,0.63-0.31,0.93-0.49c4.11-2.43,6.02-7.2,5.05-11.64
					C986.23,203.32,988.06,203.78,989.92,203.76z"/>
				<path class="st17" d="M1016.07,306.67L984.95,311c-12.08,1.68-23.33-6.83-25.01-18.91L929.71,74.72
					c-1.68-12.08,6.82-23.33,18.9-25.01l27.59-3.84c2.82,3.59,4.8,8.07,5.49,13.08l34.15,245.51
					C1015.95,305.21,1016.02,305.94,1016.07,306.67z"/>
				<path class="st11" d="M1060.48,44.59l-83.54,11.62l-47.42,6.59c-2.35,0.33-4.54-1.33-4.86-3.68l-2.85-20.47
					c-0.33-2.35,1.33-4.54,3.68-4.86l47.35-6.59c0.01,0,0.01,0,0.01,0l83.6-11.63c2.35-0.33,4.54,1.33,4.86,3.68l2.85,20.47
					C1064.49,42.08,1062.83,44.27,1060.48,44.59z"/>
				<path class="st6" d="M976.94,56.21l-47.42,6.59c-2.35,0.33-4.54-1.33-4.86-3.68l-2.85-20.47c-0.33-2.35,1.33-4.54,3.68-4.86
					l47.35-6.59c0.01,0,0.01,0,0.01,0c2.34-0.32,4.53,1.33,4.85,3.68l2.85,20.47C980.87,53.68,979.25,55.85,976.94,56.21z"/>
			</g>
		</g>
		<g>
			<path class="st5" d="M1011.4,171.23c0,0-0.32-0.79-1.56-1.62c-0.91-1-1.94-2.25-2.19-3.04c-0.48-1.51-2.36-1.61-2.69-0.15
				c-0.11,0.49-0.09,1,0.04,1.52c-3.08-0.46-7.58-0.38-14.15,1.03c0,0-5.12,0.87-0.7,4.16c2.95,2.19,4.82,1.68,9.03,4.71
				c4.21,3.03,9.48,3.86,12.72,1.81l4.27-0.69l0.8-7.35L1011.4,171.23z"/>
			<path class="st11" d="M1131.99,89.51c0,0,8.76,45.94-43.76,81.45c-14.18,9.59-77.17,10.67-77.17,10.67s-1.88-7.8,2.32-11.09
				c0,0,53.84-19.07,59.11-18.13c4.67,0.83,29.34-45.22,38.99-54.27C1121.11,89.09,1131.99,89.51,1131.99,89.51z"/>
		</g>
	</g>
	<g>
		<path class="st18" d="M957.08,431.38c0,3.62-1.48,6.92-3.87,9.31c-2.39,2.39-5.69,3.88-9.31,3.88h-62.26
			c-7.25,0-13.18-5.94-13.18-13.19c0-3.63,1.48-6.92,3.87-9.31c2.39-2.39,5.69-3.87,9.31-3.87h62.26
			C951.15,418.2,957.08,424.13,957.08,431.38z"/>
		<path class="st19" d="M924.96,431.38c0,3.62-1.48,6.92-3.87,9.31c-2.39,2.39-5.69,3.88-9.31,3.88h-30.15
			c-7.25,0-13.18-5.94-13.18-13.19c0-3.63,1.48-6.92,3.87-9.31c2.39-2.39,5.69-3.87,9.31-3.87h30.15
			C919.03,418.2,924.96,424.13,924.96,431.38z"/>
		<path class="st20" d="M944.95,421.13h-59.39c-1.03,0-1.87,0.84-1.87,1.87v0.42c0,1.03,0.84,1.87,1.87,1.87h59.39
			c1.03,0,1.87-0.84,1.87-1.87v-0.42C946.82,421.97,945.98,421.13,944.95,421.13z"/>
	</g>
	<g>
		<path class="st13" d="M731.14,12.8c-0.04-1.06-0.86-12.45-18.21-13.04c0,0,8.53,1.02,10.01,4.77c0,0-5.81-4.64-10.54-3.14
			c-4.73,1.49-7.51,9.78-7.54,12.51c-0.03,2.73,2.6,11.52,5.6,12.26c1.14,0.28,2.45,0.21,3.64,0c-0.8,1.25-1.58,2.62-2.33,4.16
			c-6.92,14.21,0.22,28.1,6.08,26.57c3.76-0.98,4.82,5.43,4.82,5.43l36.52-29.57C759.2,32.75,745.78,4.99,731.14,12.8z"/>
		<path class="st10" d="M830.69,190.52c-3.05,2.7-11.15-6.58-12.27-7.81c-0.06-0.12-0.12-0.18-0.12-0.18l2.47-6.87
			c0,0,10.63-0.41,12.39,1.35C834.91,178.78,834.03,187.65,830.69,190.52z"/>
		<path class="st10" d="M820.76,175.67l-1.06,7.1c0,0-0.47,0-1.29-0.06c-2.58-0.18-8.86-0.53-15.97-1.29
			c-6.78-0.67-14.36-1.67-20.29-3.11c-3.42-0.83-6.29-1.81-8.13-2.94c-7.69-4.7-20.31-19.08-28.53-33.47
			c-0.24-0.35-0.41-0.7-0.59-1.06c-2.77-4.93-5-9.83-6.29-14.32c-0.72-2.46-1.14-4.79-1.22-6.93c-0.18-3.7,0.23-6.87,1-9.63
			c0.99-3.64,2.64-6.51,4.35-8.69c0.23-0.35,0.47-0.7,0.82-0.99c2.82-3.35,5.58-4.76,5.58-4.76c1.12-0.47,2.32-0.11,3.56,0.91
			c0.14,0.11,0.27,0.23,0.41,0.36c0.01,0.01,0.01,0.02,0.02,0.02c0.18,0.17,0.35,0.34,0.53,0.53v0.06c0.46,0.48,0.92,1.04,1.4,1.68
			c0.01,0.01,0.01,0.01,0.01,0.02c0.87,1.18,1.77,2.63,2.64,4.29c0.06,0.06,0.12,0.11,0.12,0.18c0.29,0.53,0.59,1.11,0.94,1.76
			c0.12,0.11,0.18,0.29,0.23,0.41c0.65,1.35,1.29,2.76,1.94,4.23c7.22,15.74,14.91,39.57,21.31,46.68
			c1.49,1.65,5.87,4.16,11.16,6.82v0.01c0.1,0.05,0.2,0.1,0.31,0.15c0.01,0.01,0.02,0.01,0.03,0.02c4.41,2.21,9.43,4.52,13.93,6.51
			C814.89,173.32,820.76,175.67,820.76,175.67z"/>
		<path class="st11" d="M793.67,163.73c-0.34,0.78-1.88,4.46-4.38,8.21c-2.02,3.04-4.68,6.12-7.82,7.7
			c-2.41-1.17-6.76-2.88-8.61-4.01c-6.67-4.08-16.18-15.63-23.95-28.01c-1.19-1.89-2.33-3.8-3.42-5.7c-0.24-0.35-0.41-0.7-0.59-1.06
			c-2.77-4.93-5-9.83-6.29-14.32l14.08-30.1l0.04-0.07c0.05,0.05,0.18,0.2,0.38,0.43c0.01,0.01,0.01,0.02,0.02,0.02
			c0.39,0.46,1.06,1.25,1.93,2.27c0.01,0.01,0.01,0.01,0.01,0.02c0.87,1.18,1.77,2.63,2.64,4.29c0.06,0.06,0.12,0.11,0.12,0.18
			c0.29,0.53,0.59,1.11,0.94,1.76c0.12,0.11,0.18,0.29,0.23,0.41c0.65,1.35,1.29,2.76,1.94,4.23c7.22,15.74,14.91,39.57,21.31,46.68
			c1.49,1.65,5.87,4.16,11.16,6.82v0.01C793.52,163.64,793.61,163.73,793.67,163.73z"/>
		<path class="st6" d="M789.29,171.94c-2.02,3.04-4.68,6.12-7.82,7.7c-2.41-1.17-6.76-2.88-8.61-4.01
			c-6.67-4.08-16.18-15.63-23.95-28.01c0.29-3.89,20.67,16.1,23.26,19.73C774.13,170.07,784.22,171.43,789.29,171.94z"/>
		<g>
			<path class="st21" d="M823.37,409.72l-2.85,26.34c-0.56,5.21-5.29,9.02-10.5,8.45l-26.34-2.84c-5.21-0.56-9.02-5.29-8.45-10.5
				l2.84-26.34c0.52-4.79,4.55-8.39,9.24-8.5c0.41-0.01,0.83,0.01,1.26,0.05l26.34,2.84C820.13,399.78,823.93,404.51,823.37,409.72z
				"/>
			<path class="st7" d="M808.55,408.98c-18.64,1.04-22.45,32.95-24.86,32.7c-5.21-0.56-9.02-5.29-8.45-10.5l2.84-26.34
				c0.52-4.79,4.55-8.39,9.24-8.5C803.74,402.31,817.91,408.45,808.55,408.98z"/>
			<path class="st2" d="M890.76,87.27l-35.5,200.14l-20.03,112.91c-1.15,6.51-7.16,11.01-13.74,10.31l-32.34-3.49l-7.3-0.79
				c-9.18-0.99-15.99-8.96-15.56-18.18l5.19-109.8l9.6-202.94l67.62,7.3L890.76,87.27z"/>
			<path class="st4" d="M848.69,82.73l-34.47,196.94l-20.98,119.88c-0.53,3.03-2.01,5.67-4.09,7.59l-7.3-0.79
				c-9.18-0.99-15.99-8.96-15.56-18.18l5.19-109.8l9.6-202.94L848.69,82.73z"/>
			<polygon class="st18" points="892.24,73.6 890.76,87.27 848.69,82.73 781.08,75.43 782.55,61.76 850.6,69.11 			"/>
			<path class="st19" d="M855.26,287.42L835.1,401.06c-1.08,6.1-6.71,10.32-12.87,9.66l-30.46-3.29l-12.7-1.37
				c-7.62-0.82-13.28-7.44-12.92-15.09l5.32-112.59l43.35,4.68L855.26,287.42z"/>
			<path class="st16" d="M814.83,283.05l-21.17,119.38c-0.32,1.82-0.97,3.5-1.88,5l-12.7-1.37c-7.62-0.82-13.28-7.44-12.92-15.09
				l5.32-112.59L814.83,283.05z"/>
			<polygon class="st22" points="850.6,69.11 848.69,82.73 781.08,75.43 782.55,61.76 			"/>
		</g>
		<path class="st8" d="M743.86,431.54l-7.76,2.89c0,0-33.7-46.74-37.85-87.86c-0.74-7.34-0.49-14.45,1.11-21.02
			c0,0-0.33-1.88-0.91-5.21c-0.27-1.55-0.6-3.42-0.97-5.56c-1.1-6.28-2.6-14.87-4.33-24.64c-3.97-22.5-9.1-51.27-13.09-72.42
			l2.09-0.67l22.62-7.3l4.67-14.85l16.84-4.43c0,0,3.76,7.36,7.13,42.13c0.62,4.56,1.18,9.59,1.61,15.04
			c1.31,16.65,1.41,37.29-1.6,60.9c-0.77,6.04-1.75,12.28-2.96,18.69c-0.89,4.7-1.02,11.1-0.65,18.46
			C731.52,379.3,743.86,431.54,743.86,431.54z"/>
		<path class="st9" d="M735.03,247.64l-36.57,72.71c-0.27-1.55-0.6-3.42-0.97-5.56c-1.1-6.28-2.6-14.87-4.33-24.64
			c-3.97-22.5-9.1-51.27-13.09-72.42l2.09-0.67l22.62-7.3l4.67-14.85l16.84-4.43c0,0,3.76,7.36,7.13,42.13
			C734.04,237.16,734.61,242.19,735.03,247.64z"/>
		<path class="st8" d="M718.94,199.8l-0.85-7.26c-14.18,3.77-52.08-10.53-52.08-10.53s-13.74,12.08-11.94,41.03
			c0.88,14.13,2.49,74.18,4.17,91.95c0.61,6.44,1.14,11.02,1.36,12.85c0,0.01,0,0.01,0,0.02c0.07,0.56-0.13,1.09-0.41,1.57
			c-2.47,4.2-4.52,8.57-6.2,13.04c-16.49,43.94,2.54,98.05,2.54,98.05l4.94-1.99c0,0,10.83-60.22,19.63-86.82
			c1.49-4.51,2.93-8.06,4.24-10.18c3.83-6.17,7.38-16.26,10.6-28.26c6.09-22.69,10.99-52.2,14.25-74.98
			C709.64,238.33,718.94,199.8,718.94,199.8z"/>
		<path class="st10" d="M729.7,115.56c-24.39,1.34-19.03-35.01-17.54-34.83c2.98-1.56,8.34-9.13,11.44-21.79l1.05,0.49l17.6,8.27
			c0,0-1.87,5.73-3.25,11.2c-1.08,4.29-1.85,8.43-1.2,9.59c1.39,0.56,2.22,0.92,2.22,0.92s0,0.01,0.01,0.02
			C740.2,89.89,736.21,115.21,729.7,115.56z"/>
		<path class="st12" d="M742.25,67.71c0,0-1.87,5.72-3.25,11.2c-10.29-2.87-13.41-13.68-14.35-19.48L742.25,67.71z"/>
		<path class="st10" d="M744.42,73.77c0,0-24.61-5.69-20.82-20.96c3.78-15.27,3.15-26.29,19.02-23.3
			c15.87,2.99,17.47,9.57,17.45,14.97C760.04,49.88,750.92,74.85,744.42,73.77z"/>
		<path class="st13" d="M761.45,35.81c-2.65-5.53-5.76-5.24-7.71-4.26c-11.56-10.7-22.9-1.96-22.9-1.96
			c-4.37,10.54-13.82,14.85-13.82,14.85s3.78,3.87,14.74,3.79c3.35-0.03,6.71-1.56,9.77-3.68c-5.91,5.95-12.83,9.57-12.83,9.57
			c13.71-2.62,22.91-18.5,23.85-20.19c1.16,1.72,3.38,5.37,3.57,8.45c0.25,4.19-1.19,12.33,1.21,12.64
			C757.33,55.02,765.41,44.11,761.45,35.81z"/>
		<path class="st7" d="M684.24,444.57h-39.07c0,0-0.94-5.95,1.1-10.47c1.96-4.34,5.02-6.31,4.29-11.55
			c2.48,2.56,6.53,5.42,12.18,4.66c0.69,1.12,4.47,7.13,6.78,8.79C672.07,437.83,683.45,437.17,684.24,444.57z"/>
		<path class="st7" d="M768.14,444.57h-39.07c0,0-1.46-6.23,1.11-10.47c2.27-3.75,1.4-5.89-0.28-8.99c1.77,0.72,4.06,1.38,6.58,1.24
			c1.95-0.11,4.01-1,5.81-2.04c1.68,1.92,8.88,10.08,11.13,11.7C755.97,437.83,767.35,437.17,768.14,444.57z"/>
		<path class="st11" d="M752.73,96.37l-6.41,86.05l-3.92,52.69c-6.03,1.87-11.76,3.34-17.21,4.46c-0.36-4.42-1.79-9.7-1.79-9.7
			c0.06,2.77-3.18,8.07-5.1,10.96c-50.04,8.02-73.49-13.81-73.49-13.81c1.95-19.32,10.38-58.4,20.47-91.16
			c2.1-6.81,4.27-13.35,6.47-19.39c5-13.72,8.18-20.88,10.88-26.43c5.13-10.55,28.07-9.89,28.07-9.89
			c4.42,15.92,16.56,25.85,16.56,25.85c6.47-3.8,11.29-17.17,11.29-17.17L752.73,96.37z"/>
		<path class="st14" d="M715.77,77.2c0,0-4.16,0.28-5.06,2.94c0,0,5.43,21.87,16.56,25.85L715.77,77.2z"/>
		<path class="st14" d="M727.27,105.99c0,0,10.38-17.27,10.34-19.86c0,0,4.29,1.67,4.02,4.33
			C741.63,90.46,732.68,104.8,727.27,105.99z"/>
		<path class="st6" d="M698.78,98.21c0.3,1.04,37.76,60.84,38.58,72.75c0.82,11.91-15.75,5.18-16.01,3.62
			C721.08,173.04,698.78,98.21,698.78,98.21z"/>
		<path class="st6" d="M746.33,182.41l-3.92,52.69c-53.59-15.44-56.54-128.52-56.54-128.52l33.12,59.79l27.05,15.63
			C746.04,182.01,746.14,182.15,746.33,182.41z"/>
		<path class="st10" d="M797.56,188.38c-0.11-1.97-2.7-1.88-4.67-1.89c-3.23-0.02-8.33-0.24-11.28-1.37c0,0,9.42-0.13,7.42-3.11
			c-0.36-0.54-5.05-0.13-10.28-0.13c-2.14,0-7.44,2.94-7.17,3.07c-3.79-0.5-7.23-1.23-8.35-1.48l0,0c-2.58-1.41-5.7-3.11-8.98-4.99
			c-6.72-3.79-14.28-8.28-20.22-12.31c-1.07-0.73-2.09-1.44-3.03-2.13c-3.58-2.58-6.28-4.87-7.22-6.52
			c-1.47-2.52-3.11-6.51-4.93-11.45c-0.94-2.58-1.94-5.4-2.94-8.39c-1.76-4.93-3.52-10.27-5.34-15.62
			c-3.29-9.75-6.81-19.55-10.15-27.12c-2.18-4.76-4.29-8.69-6.28-11.1c-1.58-1.94-13.62-0.18-13.74,16.85
			c-0.06,0.94,0,1.94,0.06,2.99c0.12,2.99,0.7,6.63,1.58,10.63c1.41,6.7,3.76,14.45,6.7,22.31c0.82,2.11,1.64,4.29,2.52,6.46
			c6.34,15.74,14.5,30.41,21.37,35.4c0.29,0.23,0.53,0.41,0.82,0.59c2.51,1.59,6.05,3.18,10.15,4.69c0.59,0.22,1.21,0.44,1.83,0.65
			c6.93,2.35,15.15,4.46,22.48,6.22h0.06c4.29,0.94,8.22,1.82,11.51,2.46c0,0,0,0,0,0l0,0c0,0,0.36,0.09,1,0.22
			c0.27,0.06,0.57,0.12,0.93,0.19c0.01,0,0.02,0,0.04,0.01c3.12,0.77,9.5,2.41,15.52,4.75c8.45,3.35,14.67-0.81,17.5-3.76
			C796.25,192.65,797.66,190.18,797.56,188.38z"/>
		<path class="st11" d="M734.03,166.17c0,0,0.43,14.2-12.86,21.1c-15.36-5.54-23.58-28.45-29.92-44.19
			c-0.88-2.17-1.7-4.34-2.52-6.46c-2.94-7.87-5.29-15.62-6.7-22.31c-0.88-3.99-1.47-7.63-1.58-10.63c-0.06-1.06-0.12-2.06-0.06-2.99
			c0.11-17.03,12.15-18.79,13.74-16.85c1.99,2.41,4.11,6.34,6.28,11.1c3.35,7.57,6.87,17.38,10.15,27.12
			c1.82,5.34,3.58,10.69,5.34,15.62c1,2.99,2,5.81,2.94,8.39c1.82,4.94,3.46,8.93,4.93,11.45c0.94,1.65,3.64,3.94,7.22,6.52
			C731.94,164.74,732.96,165.44,734.03,166.17z"/>
		<path class="st11" d="M793.74,163.64c-0.02,0.06-0.04,0.09-0.08,0.09c0.02-0.05,0.04-0.08,0.05-0.11
			C793.76,163.53,793.77,163.53,793.74,163.64z"/>
	</g>
	<g>
		<rect x="413.46" y="187.32" class="st18" width="172.38" height="257.25"/>
		<rect x="437.47" y="187.31" class="st19" width="172.38" height="257.25"/>
		<polygon class="st22" points="437.47,202.24 429.21,215.09 413.46,215.09 413.46,187.32 437.47,187.32 		"/>
		<polygon class="st19" points="413.46,187.32 398.73,207.58 422.74,207.58 437.47,187.32 		"/>
		<polygon class="st4" points="437.47,199.04 437.47,445.39 526.37,445.39 526.37,207.58 		"/>
		<g>
			<polygon class="st16" points="609.85,207.58 595.86,215.09 445.78,215.09 437.47,202.24 437.47,187.31 			"/>
			<polygon class="st19" points="609.84,187.32 437.47,187.32 449.64,207.58 622.02,207.58 			"/>
		</g>
	</g>
	<g>
		<g>
			<g>
				<path class="st1" d="M544.19,293.65H359.54c-11.33,0-20.6,9.27-20.6,20.6V424c0,11.33,9.27,20.6,20.6,20.6h184.65
					c11.33,0,20.6-9.27,20.6-20.6V314.25C564.79,302.92,555.52,293.65,544.19,293.65z"/>
				<path class="st2" d="M408.37,342.26c-4.36,11.6-17.29,17.47-28.88,13.11c-11.59-4.35-17.47-17.28-13.11-28.88
					c4.35-11.59,17.29-17.47,28.88-13.11C406.85,317.74,412.72,330.67,408.37,342.26z"/>
				<path class="st3" d="M395.26,313.38l-15.77,41.99c-11.59-4.35-17.47-17.28-13.11-28.88
					C370.73,314.9,383.66,309.03,395.26,313.38z"/>
				<path class="st2" d="M404.75,418.06c-7.84,9.6-21.96,11.02-31.56,3.19c-9.59-7.83-11.03-21.96-3.19-31.56
					c7.83-9.59,21.96-11.02,31.56-3.19C411.15,394.33,412.58,408.46,404.75,418.06z"/>
				<path class="st3" d="M401.56,386.5l-28.37,34.75c-9.59-7.83-11.03-21.96-3.19-31.56C377.83,380.1,391.96,378.67,401.56,386.5z"
					/>
				<path class="st2" d="M545.18,342.26c-4.36,11.6-17.29,17.47-28.88,13.11c-11.59-4.35-17.47-17.28-13.11-28.88
					c4.35-11.59,17.29-17.47,28.88-13.11C543.67,317.74,549.54,330.67,545.18,342.26z"/>
				<path class="st3" d="M532.08,313.38l-15.77,41.99c-11.59-4.35-17.47-17.28-13.11-28.88
					C507.55,314.9,520.48,309.03,532.08,313.38z"/>
				<path class="st2" d="M541.56,418.06c-7.57,9.27-21,10.92-30.55,3.96c-0.34-0.24-0.67-0.5-1-0.77
					c-9.6-7.83-11.02-21.96-3.19-31.56c7.83-9.59,21.96-11.02,31.56-3.19c0.33,0.27,0.64,0.54,0.95,0.82
					C548.05,395.29,549.13,408.79,541.56,418.06z"/>
				<path class="st3" d="M539.32,387.32l-28.31,34.69c-0.34-0.24-0.67-0.5-1-0.77c-9.6-7.83-11.02-21.96-3.19-31.56
					c7.83-9.59,21.96-11.02,31.56-3.19C538.7,386.77,539.01,387.04,539.32,387.32z"/>
				<g>
					<path class="st2" d="M478.59,324.78c5.31,11.2,0.53,24.57-10.66,29.87c-11.19,5.3-24.57,0.54-29.87-10.66
						c-5.3-11.19-0.53-24.57,10.66-29.87C459.91,308.81,473.29,313.58,478.59,324.78z"/>
					<path class="st3" d="M448.72,314.11l19.21,40.53c-11.19,5.3-24.57,0.54-29.87-10.66C432.76,332.79,437.53,319.42,448.72,314.11
						z"/>
				</g>
				<path class="st2" d="M449.99,424.7c-11.5-4.6-17.09-17.66-12.49-29.16c4.6-11.5,17.65-17.09,29.16-12.49
					c11.5,4.6,17.09,17.66,12.49,29.16C474.55,423.71,461.49,429.3,449.99,424.7z"/>
				<path class="st3" d="M479.15,412.21l-41.64-16.67c4.6-11.5,17.65-17.09,29.16-12.49C478.16,387.65,483.75,400.71,479.15,412.21z
					"/>
			</g>
		</g>
		<path class="st8" d="M312.28,172.43c-6.98-3.51-12.69-16.33-12.09-18.63c0.07-0.27,0.4-0.99,0.92-2.04l33.18-14.04
			c0,0-3.56-20.74-14.17-23.57c-0.31-4.04-2.43-12.81-15.17-12.81c0,0,5.01,1.36,7.61,4.08c0,0-10.55-6.2-22.04,3.32
			c-11.48,9.52-4.35,33.4-7.84,37.93c-3.49,4.53-17.09,5.44-15.43,20.1c1.66,14.66,43.16,33.02,40.5,45.14
			c0,0,15.23-22.4,5.67-33.73c1.66,1.88,4.79,5.97,5.21,10.6C318.63,188.79,320.17,176.4,312.28,172.43z M312.38,177.1
			c0,0,0.1,0.1,0.27,0.27C312.56,177.28,312.48,177.19,312.38,177.1z"/>
		<path class="st21" d="M273.66,436.36l-8.23-1.21c0,0-27.66-21.98-31.78-63c-0.42-4.17-0.51-8.41-0.2-12.68
			c0.04-0.49-0.02-0.99-0.29-1.4c0,0,0-0.01-0.01-0.01c-0.89-1.36-3.09-4.76-6.07-9.59c-2.94-4.76-7.97-13.77-13.51-23.88
			c-9.97-18.2-21.59-39.97-25.57-46.9c-12.69-22.1-6.57-36.95-6.57-36.95s35.4-3.5,45.1-11.99l3.49,5.39c0,0,7.67,33.96,7.31,34.12
			c0.38,1.15,0.76,2.33,1.15,3.53c6.05,18.68,13.02,42.04,16.81,61.06c2.13,10.7,3.26,20.03,2.66,26.38
			c-0.21,2.18,0.05,5.53,0.63,9.66C262.02,393.25,273.66,436.36,273.66,436.36z"/>
		<path class="st7" d="M290.92,446.77H256.6c0,0-0.82-5.23,0.97-9.2c1.72-3.81,4.17-3.93,0.31-9.9c2.18,2.25,9.19,3.17,14.15,2.51
			c0.61,0.99,3.92,7.6,5.95,9.06C280.23,440.85,290.23,440.27,290.92,446.77z"/>
		<path class="st7" d="M238.5,271.78c-3,16.53-10.08,44.05-24.92,52.81c-9.97-18.2-21.59-39.97-25.57-46.9
			c-12.69-22.1-6.57-36.95-6.57-36.95s35.4-3.5,45.1-11.99l3.49,5.39c0,0,7.67,33.96,7.31,34.12
			C237.72,269.41,238.11,270.59,238.5,271.78z"/>
		<path class="st21" d="M214.43,243.29l0.12-6.42c-12.79,1.61-44.1-15.28-44.1-15.28s-13.38,8.9-15.21,34.31
			c-0.89,12.4-6.55,64.86-7.18,80.53c-0.23,5.68-0.3,9.73-0.33,11.35c0,0.01,0,0.01,0,0.02c-0.01,0.49-0.24,0.93-0.54,1.32
			c-2.65,3.36-4.94,6.93-6.93,10.62c-19.52,36.31-9.31,85.65-9.31,85.65l4.53-1.15c0,0,16.5-51.15,27.29-73.27
			c1.83-3.75,3.49-6.67,4.88-8.36c4.05-4.92,8.33-13.29,12.55-23.35c7.97-19.03,15.7-44.14,21.22-63.59
			C201.8,275.74,214.43,243.29,214.43,243.29z"/>
		<path class="st12" d="M371.41,288.2c-0.8-0.6-9.43-0.44-9.43-0.44s-4.85-3.05-9.88-8.07c-10.38-10.37-25.52-27.22-28.29-29.55
			c-4.76-4.01-12.99-44.59-20.07-67.34c-3.73-11.98-19.96-14.23-26.49-3.51c-1.17,1.93-1.92,4.14-1.98,6.68
			c-0.36,14.05,27.34,68.42,31.02,73.23c6.69,8.76,47.1,29.81,47.1,29.81c0.92,0.51,0.98,2.07,1.38,2.72
			c0.94,1.51,1.79,1.92,1.79,1.92l0,0c0,0,0,0,0,0c0,0,5.24,1.51,6.66,2.48l1.5,0.95c0,0,0.87-0.97-0.5-2.05
			c-0.33-0.26-0.93-0.75-1.48-1.39h2.35c0.21,0,0.41-0.02,0.61-0.06c1.35-0.28,2.68-0.74,4.12-0.69c1.47,0.05,2.92,0.53,4.01,0.68
			c1.11,0.16,6.26,0.07,6.26,0.07C380.42,293.24,372.83,289.26,371.41,288.2z"/>
		<path class="st10" d="M289.27,200.45c-20.91-4.8-7.55-34.18-6.34-33.66c2.9-0.59,9.26-5.68,14.95-15.61l0.77,0.67l12.84,11.26
			c0,0-2.97,4.38-5.47,8.67c-1.95,3.36-3.61,6.67-3.35,7.8C303.71,180.39,294.85,201.73,289.27,200.45z"/>
		<path class="st6" d="M302.47,178.63c0,0,3.68,7.25,5.64,13.54c1.96,6.28,6.87,26.27,6.87,26.27s-10.12,11.55-24.2,10.87
			c0,0-7.57-11.85-4.9-22.55C288.54,196.06,302.47,178.63,302.47,178.63z"/>
		<path class="st12" d="M311.49,163.11c0,0-2.97,4.37-5.47,8.67c-7.98-4.92-7.99-14.81-7.38-19.93L311.49,163.11z"/>
		<path class="st10" d="M311.85,168.75c0,0-19.38-10.79-12.48-22.76c6.9-11.97,9.05-21.42,21.72-15.04
			c12.67,6.38,12.42,12.32,11.09,16.88C330.84,152.39,317.07,171.25,311.85,168.75z"/>
		<path class="st8" d="M335.44,140.85c-0.89-5.31-3.59-5.82-5.47-5.47c-7.16-11.84-18.85-7.22-18.85-7.22
			c-6.25,7.84-15.28,9.18-15.28,9.18s2.25,4.19,11.52,6.78c2.83,0.79,6.04,0.31,9.14-0.73c-6.43,3.59-13.15,4.96-13.15,4.96
			c12.21,1.12,23.83-10.05,25.04-11.24c0.56,1.73,1.55,5.35,0.96,8c-0.8,3.6-4,10.12-2.05,10.96
			C327.3,156.07,336.78,148.82,335.44,140.85z"/>
		<path class="st7" d="M158.24,446.77h-34.32c0,0-0.82-5.23,0.97-9.2c1.72-3.81,4.41-5.54,3.76-10.15c2.18,2.25,5.74,4.76,10.7,4.09
			c0.61,0.99,3.92,6.26,5.95,7.72C147.55,440.85,157.55,440.27,158.24,446.77z"/>
		<path class="st11" d="M291.73,223.74c-4.42,1.54-10.61,2.39-16.95,3.07c-9.02,0.99-18.34,1.66-23.22,3.61
			c-0.95,0.38-3.73,1.54-6.51,3.55v0.01c0,0-0.07,0.04-0.19,0.14c-0.92,0.67-1.84,1.45-2.69,2.32c-1.29,1.33-2.42,2.89-3.15,4.67
			c-1.79,4.42,0.58,16.68,2.1,23.38c0.61,2.7-0.66,5.48-3.12,6.76c-3.43,1.77-6.8,3.42-10.12,4.91c-0.18,0.08-0.35,0.15-0.52,0.23
			c0.03-0.68,0.04-1.36,0.04-2.02c0.01-4.62-0.58-8.47-0.58-8.47c-0.82,4.67-3.89,9.71-6.76,13.59
			c-46.06,18.48-78.24,10.45-77.71,1.24c1.82-31.97,23.37-59.15,23.37-59.15c40.2-46.75,121.53-59.06,121.53-59.06
			s3.89-0.47,8.59,5.18c6.76,8.14,7.1,10.26,7.1,10.26S304.72,219.21,291.73,223.74z"/>
		<path class="st6" d="M274.77,226.82c-9.02,0.99-18.34,1.66-23.22,3.61c-1.99-29.81,12.07-52.22,12.07-52.22
			S272.8,215.54,274.77,226.82z"/>
		<path class="st6" d="M241.11,264.51c0.61,2.7-0.66,5.48-3.12,6.76c-3.43,1.77-6.8,3.42-10.12,4.91c-0.18-0.57-0.34-1.16-0.48-1.78
			c-0.52-2.33-0.76-5.13-0.58-8.47c0.77-14.15,10.4-24.86,15.34-29.47c-1.29,1.33-2.42,2.89-3.15,4.67
			C237.22,245.55,239.59,257.8,241.11,264.51z"/>
		<path class="st6" d="M287.25,162.53c0,0,3.54-4.48,5.93-4.33c0,0,9.68,13.55,9.76,19.77
			C302.94,177.97,290.87,161.91,287.25,162.53z"/>
		<path class="st10" d="M346.92,323.06c-0.52-1.17-3.75-9.32-6.6-10.02c-2.85-0.7-6.59-4.03-6.59-4.03s-25.59-43.32-29.55-47.37
			c-6.22-6.36-12.26-84.11-19.92-89.2c0,0-22.62,2.23-24.43,16.93c-1.81,14.7,21.68,74.56,25.05,79.98
			c6.13,9.87,42.2,43.69,42.2,43.69c4.36,5.77,2.97,5.97,4.87,11.58c1.9,5.61,11.13,7.85,12.69,8.03c1.55,0.17,0.26-2.5-1.9-5.52
			c-2.16-3.02-2.76-8.46-2.38-8.89c0.38-0.43,1.26,0.34,2.56,2.33C344.2,322.54,347.43,324.22,346.92,323.06z"/>
		<path class="st11" d="M295.84,200.51c0,0,2.32-37.89-26.68-28.73c-29,9.16,4.5,74.34,4.5,74.34s17.02-0.84,23.06-15.69
			L295.84,200.51z"/>
	</g>
	<g>
		<path class="st21" d="M598.43,432.91c0,3.21-1.31,6.12-3.43,8.23c-2.12,2.12-5.03,3.43-8.23,3.43h-55.07
			c-6.41,0-11.66-5.25-11.66-11.66c0-3.21,1.31-6.12,3.42-8.24c2.12-2.11,5.03-3.42,8.23-3.42h55.07
			C593.18,421.25,598.43,426.49,598.43,432.91z"/>
		<path class="st23" d="M570.02,432.91c0,3.21-1.31,6.12-3.42,8.23c-2.12,2.12-5.03,3.43-8.24,3.43h-26.67
			c-6.41,0-11.66-5.25-11.66-11.66c0-3.21,1.31-6.12,3.42-8.24c2.12-2.11,5.03-3.42,8.23-3.42h26.67
			C564.77,421.25,570.02,426.49,570.02,432.91z"/>
		<path class="st24" d="M587.7,423.83h-52.53c-0.91,0-1.65,0.74-1.65,1.65v0.37c0,0.91,0.74,1.65,1.65,1.65h52.53
			c0.91,0,1.65-0.74,1.65-1.65v-0.37C589.35,424.58,588.61,423.83,587.7,423.83z"/>
	</g>
	<g>
		<path class="st18" d="M551.44,399.87c1.52,3.04,1.66,6.42,0.66,9.43c-1,3.01-3.14,5.64-6.18,7.16l-52.2,26.16
			c-6.08,3.04-13.54,0.56-16.59-5.52c-1.52-3.04-1.66-6.42-0.67-9.43c1-3.01,3.14-5.63,6.18-7.16l52.2-26.16
			C540.92,391.32,548.39,393.8,551.44,399.87z"/>
		<path class="st19" d="M524.51,413.37c1.52,3.04,1.66,6.42,0.67,9.43c-1,3.01-3.14,5.64-6.18,7.16l-25.27,12.67
			c-6.08,3.04-13.54,0.56-16.59-5.52c-1.52-3.04-1.66-6.42-0.67-9.43c1-3.01,3.14-5.63,6.18-7.16l25.27-12.67
			C514,404.81,521.46,407.29,524.51,413.37z"/>
		<path class="st20" d="M539.48,397.51l-0.18-0.35c-0.43-0.86-1.49-1.21-2.35-0.78l-49.79,24.95c-0.86,0.43-1.21,1.49-0.78,2.35
			l0.18,0.35c0.43,0.86,1.49,1.21,2.35,0.78l49.79-24.95C539.56,399.43,539.92,398.37,539.48,397.51z"/>
	</g>
	<path class="st25" d="M1364.2,448.11H7.55c-0.99,0-1.8-0.81-1.8-1.8v0c0-0.99,0.81-1.8,1.8-1.8H1364.2c0.99,0,1.8,0.81,1.8,1.8l0,0
		C1366,447.29,1365.19,448.11,1364.2,448.11z"/>
</g>
</svg>
